# xmcd
#
# Track frame offsets:
#	150
#	14419
#	29123
#	44317
#	57866
#	73742
#	86981
#	101660
#	115581
#	129372
#	148489
#	165332
#	181333
#	195192
#
# Disc length: 2807 seconds
#
# Revision: 1
# Processed by: cddbd v1.5.2PL0 Copyright (c) Steve Scherf et al.
# Submitted via: audiograbber 1.83.01
#
DISCID=c30af50e
DTITLE=Die Flippers - Du bist der Oscar meines Herzens
DYEAR=2006
DGENRE=Schlager
TTITLE0=Du bist der Oscar meines Herzens - Die Flippers
TTITLE1=Laguna dámore - Die Flippers
TTITLE2=Es flog ein Traum von mir zu dir - Die Flippers
TTITLE3=Es war der größte Casanova - Die Flippers
TTITLE4=Nur mit dir - Die Flippers
TTITLE5=Das schwör ich dir - Die Flippers
TTITLE6=Du malst den Regenbogen - Die Flippers
TTITLE7=Wenn das Wörtchen wenn nicht wär - Die Flippers
TTITLE8=Du bist die Allerbeste - Die Flippers
TTITLE9=Sag noch einmal meinen Namen - Die Flippers
TTITLE10=Angelina - Die Flippers
TTITLE11=Du bist mein Talisman - Die Flippers
TTITLE12=Unsere Liebe - Die Flippers
TTITLE13=Bleib heut Nacht bei mir - Die Flippers
EXTD=
EXTT0=
EXTT1=
EXTT2=
EXTT3=
EXTT4=
EXTT5=
EXTT6=
EXTT7=
EXTT8=
EXTT9=
EXTT10=
EXTT11=
EXTT12=
EXTT13=
PLAYORDER=
